<svg xmlns="http://www.w3.org/2000/svg" width="479.541" height="444.725" viewBox="0 0 479.541 444.725" class="custom-svg">
    <g id="Group_4085" data-name="Group 4085" transform="translate(-6936.907 17659.362)">
      <path id="Path_666" data-name="Path 666" d="M580.712,177.2c-157,0-266.957,108.132-266.957,256.571,0,110.571,81.243,188.152,212.593,188.152,156.988,0,266.948-108.132,266.948-256.571C793.3,254.78,712.052,177.2,580.712,177.2Zm86.576,235.173L485.842,525.094c-11.94,7.417-24.847-.025-22.225-12.816L509.91,286.836c2.62-12.791,18.595-20.232,27.492-12.815L672.547,386.742C680.07,393.017,677.384,406.1,667.287,412.373Z" transform="translate(6623.152 -17836.561)" fill="#13d0b4"/>
      <path id="Path_1071" data-name="Path 1071" d="M7134.46-17553.947l3.714-4.893,3.95-3.066,3.714-1.945,3.006-1.061,3.3-.354,2.889.354,3.891,1.65,3.478,2.182,133.582,112.01,2.609,3.027.768,3.418.51,3.246-.51,3.295-.768,1.686-.792,1.916-1.226,2.223-1.686,1.84-2.146,1.916-2.223,1.762-183.162,113.949-2.452.918-2.146.615-3.218.535h-2.3l-1.457-.535-1.533-.615-1.916-.918-1.839-1.457-1.609-1.686-1.073-1.84-.766-2.3-.613-2.836,1.379-8.2Z" fill="#fff"/>
    </g>
  </svg>