<svg xmlns="http://www.w3.org/2000/svg" width="16" height="9.711" viewBox="0 0 16 9.711">
  <path id="Path_619" data-name="Path 619" d="M1.672,0a1.138,1.138,0,0,0-.6.121,1.059,1.059,0,0,0-.6.355A1.7,1.7,0,0,0,0,1.629a1.981,1.981,0,0,0,.476,1.2L5.691,8.039.476,13.211A1.96,1.96,0,0,0,0,14.406a1.7,1.7,0,0,0,.476,1.117,1.656,1.656,0,0,0,1.2.476,1.617,1.617,0,0,0,1.2-.476L9.234,9.2a1.649,1.649,0,0,0,.476-1.152,1.619,1.619,0,0,0-.476-1.2L2.867.485A.955.955,0,0,0,2.348.13,1.275,1.275,0,0,0,1.672,0Z" transform="translate(0 9.711) rotate(-90)" fill="#fff" fill-rule="evenodd"/>
</svg>
