<svg xmlns="http://www.w3.org/2000/svg" width="16" height="9.711" viewBox="0 0 16 9.711">
  <path id="Path_582" data-name="Path 582" d="M1.672,0a1.138,1.138,0,0,0-.6.121,1.06,1.06,0,0,0-.6.355A1.7,1.7,0,0,0,0,1.629a1.984,1.984,0,0,0,.477,1.2L5.691,8.039.477,13.211A1.96,1.96,0,0,0,0,14.406a1.7,1.7,0,0,0,.477,1.117,1.657,1.657,0,0,0,1.2.476,1.616,1.616,0,0,0,1.2-.476L9.235,9.2a1.65,1.65,0,0,0,.476-1.152,1.619,1.619,0,0,0-.476-1.2L2.868.485A.956.956,0,0,0,2.348.13,1.273,1.273,0,0,0,1.672,0Z" transform="translate(0 9.711) rotate(-90)" fill="#13d0b4" fill-rule="evenodd"/>
</svg>
