<svg xmlns="http://www.w3.org/2000/svg" width="9.716" height="16" viewBox="0 0 9.716 16">
  <path id="Path_755" data-name="Path 755" d="M195.793,202.21a1.338,1.338,0,0,1-.676-.121,1.077,1.077,0,0,1-.52-.355l-6.371-6.371a1.607,1.607,0,0,1-.477-1.2,1.635,1.635,0,0,1,.477-1.153l6.371-6.327a1.592,1.592,0,0,1,1.2-.477,1.657,1.657,0,0,1,1.2.477,1.683,1.683,0,0,1,.477,1.118,1.982,1.982,0,0,1-.477,1.2l-5.218,5.174,5.218,5.218a1.982,1.982,0,0,1,.477,1.2,1.683,1.683,0,0,1-.477,1.153,1.014,1.014,0,0,1-.6.355,1.214,1.214,0,0,1-.6.113Z" transform="translate(-187.75 -186.21)" fill-rule="evenodd"/>
</svg>
