<svg xmlns="http://www.w3.org/2000/svg" width="16" height="9.711" viewBox="0 0 16 9.711">
  <path id="Path_619" data-name="Path 619" d="M292.982,202.2a1.138,1.138,0,0,1-.6-.121,1.059,1.059,0,0,1-.6-.355,1.7,1.7,0,0,1-.476-1.152,1.981,1.981,0,0,1,.476-1.2L297,194.161l-5.215-5.172a1.96,1.96,0,0,1-.476-1.2,1.7,1.7,0,0,1,.476-1.117,1.656,1.656,0,0,1,1.2-.476,1.617,1.617,0,0,1,1.2.476L300.544,193a1.649,1.649,0,0,1,.476,1.152,1.619,1.619,0,0,1-.476,1.2l-6.367,6.367a.955.955,0,0,1-.52.355,1.275,1.275,0,0,1-.676.13Z" transform="translate(202.2 -291.31) rotate(90)" fill="#fff" fill-rule="evenodd"/>
</svg>
