<svg xmlns="http://www.w3.org/2000/svg" width="16.12" height="16" viewBox="112.253 238 16.12 16"><path d="m128.06 246.484-.43-.395a1.476 1.476 0 0 1-.256-1.868l.308-.497a.98.98 0 0 0-.668-1.483l-.575-.103a1.478 1.478 0 0 1-1.226-1.44l-.008-.583a.976.976 0 0 0-1.363-.883l-.532.223a1.484 1.484 0 0 1-1.808-.54l-.326-.48a.977.977 0 0 0-1.62-.009l-.326.48a1.492 1.492 0 0 1-1.817.523l-.531-.231c-.635-.275-1.355.171-1.372.865l-.017.583a1.484 1.484 0 0 1-1.243 1.423l-.574.095a.98.98 0 0 0-.686 1.474l.3.497a1.478 1.478 0 0 1-.283 1.869l-.429.385a.983.983 0 0 0 .223 1.612l.523.257c.635.317.96 1.037.772 1.723l-.155.557a.98.98 0 0 0 1.055 1.235l.574-.069a1.494 1.494 0 0 1 1.586 1.029l.171.557c.206.66 1.02.909 1.552.471l.446-.368a1.486 1.486 0 0 1 1.885.008l.446.369a.979.979 0 0 0 1.56-.446l.18-.548a1.487 1.487 0 0 1 1.595-1.012l.574.077c.686.086 1.251-.548 1.071-1.217l-.145-.557a1.486 1.486 0 0 1 .797-1.715l.523-.248a.994.994 0 0 0 .248-1.62Zm-3.438-1.526-5.083 5.083a.505.505 0 0 1-.36.146.505.505 0 0 1-.36-.146l-2.829-2.829a.876.876 0 0 1-.257-.617c0-.231.094-.454.257-.617a.896.896 0 0 1 1.243 0l1.946 1.946 4.2-4.2a.896.896 0 0 1 1.243 0 .87.87 0 0 1 0 1.234Z" fill="#0ab5e7" fill-rule="evenodd" data-name="Path 639"/></svg>