<svg xmlns="http://www.w3.org/2000/svg" width="20" height="20.006" viewBox="0 0 20 20.006">
  <path id="Path_675" data-name="Path 675" d="M300.659,297.665l6.44-6.44a1.988,1.988,0,0,0,0-2.8l-.186-.186a1.988,1.988,0,0,0-2.8,0l-6.44,6.44-6.44-6.44a1.988,1.988,0,0,0-2.8,0l-.186.186a1.988,1.988,0,0,0,0,2.8l6.44,6.44-6.44,6.44a1.988,1.988,0,0,0,0,2.8l.186.186a1.988,1.988,0,0,0,2.8,0l6.44-6.44,6.44,6.44a1.973,1.973,0,0,0,2.8,0l.186-.186a1.988,1.988,0,0,0,0-2.8Z" transform="translate(-287.675 -287.665)" fill="#fff"/>
</svg>
