<svg xmlns="http://www.w3.org/2000/svg" width="28" height="28" viewBox="0 0 28 28">
  <path id="Icon_ionic-ios-close-circle" data-name="Icon ionic-ios-close-circle" d="M17.375,3.375a14,14,0,0,0-10.193,23.6,13.8,13.8,0,0,0,10.193,4.4,14,14,0,1,0,0-28Zm3.547,19.068L17.375,18.9l-3.547,3.547a1.076,1.076,0,1,1-1.521-1.521l3.547-3.547-3.547-3.547a1.076,1.076,0,0,1,1.521-1.521l3.547,3.547,3.547-3.547a1.076,1.076,0,1,1,1.521,1.521L18.9,17.375l3.547,3.547a1.081,1.081,0,0,1,0,1.521A1.068,1.068,0,0,1,20.922,22.443Z" transform="translate(-3.375 -3.375)"/>
</svg>
