<svg xmlns="http://www.w3.org/2000/svg" width="27.231" height="24" viewBox="0 0 27.231 24">
  <g id="Group_4023" data-name="Group 4023" transform="translate(-659.654 -392.01)">
    <path id="Path_601" data-name="Path 601" d="M685.292,403.444a.2.2,0,0,1,.06.2,2.714,2.714,0,0,0,.036,1.766,2.234,2.234,0,0,0,1.862,1.575,11.81,11.81,0,0,0,1.456.036h1.05v-.012c.621,0,1.313.012,1.54.012,1.444.036-.215,1.838.048,6.409.143,2.614,2.542,3.437,3.33,1.54a13.327,13.327,0,0,0,.513-1.659c.621-2.387,1.838-4.941,3.9-6.326a5.436,5.436,0,0,1,2.709-.907h.1a.5.5,0,0,0,.5-.5l.024-11.351a.5.5,0,0,0-.5-.5h-.1c-3.413-.358-3.378-1.659-7.161-1.695-1.182-.012-2.363-.012-3.557-.012-.668,0-1.337,0-2.005-.012a2.262,2.262,0,0,0-2.017,1,2.638,2.638,0,0,0-.358,2.28c.036.107.036.179-.1.239a2.349,2.349,0,0,0-1.289,1.54,2.673,2.673,0,0,0,.036,1.647C683.478,400.174,684.7,403.086,685.292,403.444Z" transform="translate(-24.7)" fill="#13d0b4" fill-rule="evenodd"/>
    <path id="Path_602" data-name="Path 602" d="M708.434,394.073a.932.932,0,0,0-.931-.931l-5.908-.012a.932.932,0,0,0-.931.931l-.024,11.255a.932.932,0,0,0,.931.931l5.908.012a.932.932,0,0,0,.931-.931Z" transform="translate(-21.548 0.217)" fill="#13d0b4" fill-rule="evenodd"/>
  </g>
</svg>
