<svg xmlns="http://www.w3.org/2000/svg" width="27.231" height="24" viewBox="0 0 27.231 24">
  <g id="Group_1897" data-name="Group 1897" transform="translate(-659.654 -392.01)">
    <g id="Path_601" data-name="Path 601" transform="translate(-24.7)" fill="none" fill-rule="evenodd">
      <path d="M685.292,403.444a.2.2,0,0,1,.06.2,2.714,2.714,0,0,0,.036,1.766,2.234,2.234,0,0,0,1.862,1.575,11.81,11.81,0,0,0,1.456.036h1.05v-.012c.621,0,1.313.012,1.54.012,1.444.036-.215,1.838.048,6.409.143,2.614,2.542,3.437,3.33,1.54a13.327,13.327,0,0,0,.513-1.659c.621-2.387,1.838-4.941,3.9-6.326a5.436,5.436,0,0,1,2.709-.907h.1a.5.5,0,0,0,.5-.5l.024-11.351a.5.5,0,0,0-.5-.5h-.1c-3.413-.358-3.378-1.659-7.161-1.695-1.182-.012-2.363-.012-3.557-.012-.668,0-1.337,0-2.005-.012a2.262,2.262,0,0,0-2.017,1,2.638,2.638,0,0,0-.358,2.28c.036.107.036.179-.1.239a2.349,2.349,0,0,0-1.289,1.54,2.673,2.673,0,0,0,.036,1.647C683.478,400.174,684.7,403.086,685.292,403.444Z" stroke="none"/>
      <path d="M 689.0546264648438 393.0097045898438 C 688.529541015625 393.0097045898438 688.1856079101562 393.1803588867188 687.9056396484375 393.580078125 C 687.6085815429688 394.0166625976562 687.540283203125 394.4598083496094 687.6849975585938 395.0139770507812 C 687.8654174804688 395.6087951660156 687.614990234375 396.1755065917969 687.0530395507812 396.4365234375 C 686.6616821289062 396.62353515625 686.4292602539062 396.9054565429688 686.2999267578125 397.3500061035156 L 686.298095703125 397.3560791015625 C 686.1959228515625 397.6990966796875 686.2039794921875 398.0486145019531 686.3220825195312 398.3949279785156 L 686.5537109375 399.0741882324219 L 685.984375 399.5110473632812 C 685.6018676757812 399.8045349121094 685.3977661132812 400.2062072753906 685.3604736328125 400.7391052246094 C 685.2996215820312 401.6072692871094 685.7086181640625 402.4399719238281 685.8677978515625 402.6264343261719 C 686.269775390625 402.9085388183594 686.4597778320312 403.4700012207031 686.3049926757812 403.9496459960938 C 686.1869506835938 404.3522644042969 686.1937866210938 404.7081909179688 686.326171875 405.0684204101562 C 686.537841796875 405.6443176269531 686.8562622070312 405.922607421875 687.3908081054688 405.9989624023438 L 687.397705078125 405.9999694824219 C 687.5333862304688 406.0203247070312 687.6909790039062 406.0294189453125 687.9086303710938 406.0294189453125 C 688.00537109375 406.0294189453125 688.1024169921875 406.0277709960938 688.1995849609375 406.0262145996094 C 688.371826171875 406.0234375 688.5444946289062 406.0209350585938 688.7171630859375 406.0247497558594 L 688.755859375 406.0247497558594 L 688.755859375 406.0127868652344 L 689.755859375 406.0127868652344 C 690.1483154296875 406.0127868652344 690.57177734375 406.0175476074219 690.8809814453125 406.02099609375 C 691.0648193359375 406.0230712890625 691.2122802734375 406.0247497558594 691.29541015625 406.0247497558594 L 691.3201904296875 406.0250549316406 C 691.8663330078125 406.0386047363281 692.2863159179688 406.2240905761719 692.5684814453125 406.576416015625 C 693.0496215820312 407.17724609375 692.9069213867188 407.897705078125 692.7093505859375 408.8948974609375 C 692.5162963867188 409.8693237304688 692.224609375 411.3418884277344 692.3416137695312 413.3793029785156 C 692.39990234375 414.443115234375 692.9486694335938 415.0097045898438 693.3223266601562 415.0097045898438 C 693.529541015625 415.0097045898438 693.6674194335938 414.7859191894531 693.7472534179688 414.5957336425781 C 693.9424438476562 414.1061706542969 694.0885620117188 413.5718688964844 694.2184448242188 413.0629577636719 C 694.6904296875 411.248046875 695.87841796875 407.9376831054688 698.5323486328125 406.1583251953125 L 698.5372924804688 406.1550598144531 C 699.40673828125 405.5794982910156 700.3670043945312 405.2299194335938 701.396240234375 405.1135864257812 L 701.418212890625 394.6885681152344 C 699.9019775390625 394.4960632324219 699.016357421875 394.1183471679688 698.2294311523438 393.7826843261719 C 697.3095703125 393.3903198242188 696.5151977539062 393.0514831542969 694.651123046875 393.0338439941406 C 693.4745483398438 393.0219421386719 692.2697143554688 393.0219421386719 691.1044921875 393.0219421386719 C 690.4429321289062 393.0219421386719 689.7589111328125 393.0219421386719 689.0859985351562 393.0099182128906 L 689.0546264648438 393.0097045898438 M 689.0546264648438 392.0097045898438 C 689.0694580078125 392.0097045898438 689.0844116210938 392.0098266601562 689.099365234375 392.010009765625 C 689.767822265625 392.0219421386719 690.4361572265625 392.0219421386719 691.1044921875 392.0219421386719 C 692.298095703125 392.0219421386719 693.4796142578125 392.0219421386719 694.6612548828125 392.0339050292969 C 698.4447021484375 392.0697021484375 698.408935546875 393.3706665039062 701.8223876953125 393.7287292480469 L 701.91796875 393.7287292480469 C 702.1923828125 393.7287292480469 702.419189453125 393.9555053710938 702.419189453125 394.2300109863281 L 702.395263671875 405.5805358886719 C 702.395263671875 405.8550720214844 702.1685791015625 406.0818481445312 701.89404296875 406.0818481445312 L 701.798583984375 406.0818481445312 C 700.8436279296875 406.1415405273438 699.9366455078125 406.427978515625 699.0892333984375 406.9889221191406 C 697.0242919921875 408.3733825683594 695.8070068359375 410.9275817871094 695.186279296875 413.3146362304688 C 695.0430908203125 413.8756103515625 694.887939453125 414.4365539550781 694.673095703125 414.9736633300781 C 693.88525390625 416.8714599609375 691.4862670898438 416.0477600097656 691.3431396484375 413.4339904785156 C 691.08056640625 408.86279296875 692.7396240234375 407.060546875 691.29541015625 407.0247497558594 C 691.0687255859375 407.0247497558594 690.37646484375 407.0127868652344 689.755859375 407.0127868652344 L 689.755859375 407.0247497558594 C 689.3978271484375 407.0247497558594 689.0516357421875 407.0247497558594 688.7054443359375 407.0247497558594 C 688.4389038085938 407.0181884765625 688.1729736328125 407.0294189453125 687.9086303710938 407.0294189453125 C 687.6871948242188 407.0294189453125 687.467041015625 407.0215759277344 687.2493896484375 406.9889221191406 C 686.246826171875 406.845703125 685.6859130859375 406.2250671386719 685.3875732421875 405.4134521484375 C 685.172607421875 404.82861328125 685.172607421875 404.2437744140625 685.3516845703125 403.6470031738281 C 685.3756103515625 403.5873107910156 685.3397216796875 403.4679565429688 685.2919921875 403.444091796875 C 684.6953125 403.0860595703125 683.477783203125 400.173828125 685.3756103515625 398.7176818847656 C 685.196533203125 398.1925354003906 685.172607421875 397.6315612792969 685.3397216796875 397.0705871582031 C 685.53076171875 396.4141235351562 685.924560546875 395.8651123046875 686.6287841796875 395.5309448242188 C 686.7601318359375 395.4712219238281 686.7601318359375 395.3996276855469 686.7242431640625 395.2922058105469 C 686.5093994140625 394.4925231933594 686.593017578125 393.7286987304688 687.082275390625 393.0125732421875 C 687.5400390625 392.3553466796875 688.1823120117188 392.0097045898438 689.0546264648438 392.0097045898438 Z" stroke="none" fill="#13d0b4"/>
    </g>
    <g id="Path_602" data-name="Path 602" transform="translate(-21.548 0.217)" fill="none" fill-rule="evenodd">
      <path d="M708.434,394.073a.932.932,0,0,0-.931-.931l-5.908-.012a.932.932,0,0,0-.931.931l-.024,11.255a.932.932,0,0,0,.931.931l5.908.012a.932.932,0,0,0,.931-.931Z" stroke="none"/>
      <path d="M 701.6636352539062 394.1301574707031 L 701.6400146484375 405.2470397949219 L 707.4099731445312 405.2586975097656 L 707.4336547851562 394.1418151855469 L 701.6636352539062 394.1301574707031 M 701.5947265625 393.1300048828125 L 707.5027465820312 393.1419372558594 C 708.0160522460938 393.1419372558594 708.4337768554688 393.5596923828125 708.4337768554688 394.0729064941406 L 708.4098510742188 405.3279113769531 C 708.4098510742188 405.8411254882812 707.9920654296875 406.2588500976562 707.4788818359375 406.2588500976562 L 701.5708618164062 406.2469177246094 C 701.0575561523438 406.2469177246094 700.639892578125 405.8291625976562 700.639892578125 405.3159484863281 L 700.6637573242188 394.0609436035156 C 700.6637573242188 393.5477294921875 701.08154296875 393.1300048828125 701.5947265625 393.1300048828125 Z" stroke="none" fill="#13d0b4"/>
    </g>
  </g>
</svg>
