<svg xmlns="http://www.w3.org/2000/svg" width="23.735" height="16" viewBox="12 176 11.868 8"><path d="M17.934 176A6.38 6.38 0 0 0 12 180a6.38 6.38 0 0 0 5.934 4 6.38 6.38 0 0 0 5.934-4 6.38 6.38 0 0 0-5.934-4Zm0 6.668c-1.484 0-2.697-1.2-2.697-2.668 0-1.468 1.213-2.668 2.697-2.668 1.483 0 2.696 1.2 2.696 2.668 0 1.468-1.213 2.668-2.696 2.668Zm0-4.268c-.89 0-1.619.72-1.619 1.6 0 .88.729 1.6 1.619 1.6s1.618-.72 1.618-1.6c0-.88-.728-1.6-1.618-1.6Z" fill="#fff" fill-rule="evenodd" data-name="Icon ionic-md-eye"/></svg>