<svg xmlns="http://www.w3.org/2000/svg" width="27.243" height="24" viewBox="0 0 27.243 24">
  <g id="Group_1896" data-name="Group 1896" transform="translate(-563.72 -384.402)">
    <g id="Path_599" data-name="Path 599" transform="translate(-23.212)" fill="#13d0b4" fill-rule="evenodd">
      <path d="M 609.4745483398438 407.9019165039062 C 609.4619140625 407.9019165039062 609.44921875 407.9018249511719 609.4365234375 407.9016418457031 C 608.7659301757812 407.8896789550781 608.0841064453125 407.8896789550781 607.4246826171875 407.8896789550781 C 606.2582397460938 407.8896789550781 605.0520629882812 407.8896789550781 603.873046875 407.8777465820312 C 601.90966796875 407.8591613769531 601.0324096679688 407.4849853515625 600.1036376953125 407.0888671875 C 599.2986450195312 406.7454833984375 598.3861694335938 406.3562927246094 596.7589721679688 406.1856079101562 L 596.73291015625 406.1828918457031 L 596.706787109375 406.1828918457031 L 596.611328125 406.1828918457031 C 596.6122436523438 406.1827697753906 596.6101684570312 406.1806945800781 596.609619140625 406.1794738769531 L 596.6339111328125 394.8321533203125 C 596.634033203125 394.8320007324219 596.6361083984375 394.8298950195312 596.6373291015625 394.829345703125 L 596.730712890625 394.8297729492188 L 596.746337890625 394.8297729492188 L 596.7619018554688 394.8287963867188 C 597.8314819335938 394.7619323730469 598.825439453125 394.4291381835938 599.716064453125 393.8396301269531 C 602.2352905273438 392.1504516601562 603.3727416992188 388.9690246582031 603.8267822265625 387.2228088378906 C 603.9607543945312 386.6982116699219 604.1127319335938 386.1434631347656 604.3192138671875 385.6265563964844 C 604.5140991210938 385.1592407226562 604.8292236328125 384.9018859863281 605.2068481445312 384.9018859863281 C 605.877685546875 384.9018859863281 606.6146850585938 385.6885681152344 606.686767578125 387.0049743652344 C 606.807373046875 389.1045227050781 606.5082397460938 390.6146240234375 606.310302734375 391.6138916015625 C 606.1262817382812 392.542724609375 606.0151977539062 393.1033935546875 606.3509521484375 393.5226745605469 C 606.6307983398438 393.8720703125 607.0753173828125 393.8830871582031 607.2213745117188 393.88671875 L 607.2276000976562 393.8868713378906 L 607.2337646484375 393.8868713378906 C 607.318115234375 393.8868713378906 607.4675903320312 393.8885803222656 607.6539916992188 393.8906555175781 C 607.9619750976562 393.8941040039062 608.3837890625 393.8988342285156 608.7733764648438 393.8988342285156 L 609.2733764648438 393.8988342285156 L 609.2733764648438 393.8868713378906 L 609.8177490234375 393.8868713378906 C 609.8798828125 393.8883361816406 609.94189453125 393.888916015625 610.0040283203125 393.888916015625 C 610.1099243164062 393.888916015625 610.2157592773438 393.88720703125 610.3214721679688 393.885498046875 C 610.42138671875 393.8838500976562 610.5211181640625 393.8822021484375 610.62060546875 393.8822021484375 C 610.7844848632812 393.8822021484375 610.9990844726562 393.8861694335938 611.2056274414062 393.9171752929688 C 611.9310302734375 394.0208129882812 612.3960571289062 394.4189758300781 612.6724243164062 395.1707153320312 C 612.8424072265625 395.6332702636719 612.851806640625 396.1050415039062 612.7011108398438 396.6126403808594 C 612.616455078125 396.8728942871094 612.7078857421875 397.2391052246094 612.9835205078125 397.3985595703125 C 613.1777954101562 397.5410461425781 613.6551513671875 398.4212646484375 613.6741943359375 399.4349670410156 C 613.6892700195312 400.2391052246094 613.4116821289062 400.8656921386719 612.8492431640625 401.2972717285156 L 612.5645751953125 401.5156860351562 L 612.6803588867188 401.8553161621094 C 612.8327026367188 402.3019104003906 612.8427734375 402.7537536621094 612.7103271484375 403.1982727050781 C 612.5411987304688 403.7794799804688 612.2073974609375 404.1806335449219 611.6891479492188 404.427490234375 C 611.4228515625 404.5504455566406 611.1908569335938 404.8324584960938 611.3250732421875 405.2604064941406 C 611.5087280273438 405.9542846679688 611.4135131835938 406.5616760253906 611.0340576171875 407.1169738769531 C 610.6753540039062 407.6455993652344 610.16552734375 407.9019165039062 609.4745483398438 407.9019165039062 Z" stroke="none"/>
      <path d="M 609.4745483398438 407.4019165039062 C 610.00146484375 407.4019165039062 610.3545532226562 407.2278442382812 610.6212158203125 406.8348999023438 C 610.9202880859375 406.3972473144531 610.9893188476562 405.9532165527344 610.8441162109375 405.3975219726562 C 610.6638793945312 404.8027648925781 610.914306640625 404.2361450195312 611.4759521484375 403.9752197265625 C 611.8674926757812 403.7882080078125 612.0999755859375 403.5062561035156 612.2293701171875 403.0615844726562 L 612.2311401367188 403.0555114746094 C 612.3333129882812 402.7125244140625 612.3252563476562 402.3630065917969 612.2071533203125 402.0166931152344 L 611.9755249023438 401.3374328613281 L 612.5448608398438 400.9005737304688 C 612.9268188476562 400.6075134277344 613.130859375 400.2054748535156 613.1685791015625 399.6715087890625 C 613.2297973632812 398.8062438964844 612.8260498046875 397.9776611328125 612.6671142578125 397.7891540527344 C 612.2612915039062 397.5084228515625 612.0687866210938 396.9437866210938 612.2242431640625 396.4619750976562 C 612.34228515625 396.059326171875 612.3355102539062 395.7033996582031 612.2031860351562 395.34326171875 C 611.9913940429688 394.767333984375 611.6729736328125 394.489013671875 611.1383666992188 394.4126586914062 L 611.1314086914062 394.41162109375 C 610.9957885742188 394.3912658691406 610.8382568359375 394.3822021484375 610.62060546875 394.3822021484375 C 610.5238647460938 394.3822021484375 610.4268188476562 394.3838500976562 610.3296508789062 394.3854064941406 C 610.1573486328125 394.3882141113281 609.9846801757812 394.3907165527344 609.81201171875 394.3868713378906 L 609.7733764648438 394.3868713378906 L 609.7733764648438 394.3988342285156 L 608.7733764648438 394.3988342285156 C 608.3809814453125 394.3988342285156 607.95751953125 394.3940734863281 607.6483764648438 394.390625 C 607.4644775390625 394.3885498046875 607.3169555664062 394.3868713378906 607.2337646484375 394.3868713378906 L 607.208984375 394.3865661621094 C 606.662841796875 394.3730163574219 606.2428588867188 394.1875305175781 605.960693359375 393.835205078125 C 605.4795532226562 393.234375 605.6222534179688 392.513916015625 605.81982421875 391.5167236328125 C 606.0128784179688 390.5422973632812 606.3045654296875 389.0697326660156 606.1875610351562 387.0323181152344 C 606.1292724609375 385.968505859375 605.58056640625 385.4018859863281 605.2068481445312 385.4018859863281 C 604.9996337890625 385.4018859863281 604.8616943359375 385.6257934570312 604.7819213867188 385.8160400390625 C 604.5868530273438 386.3053283691406 604.440673828125 386.8396606445312 604.3107299804688 387.3486328125 C 603.8388061523438 389.1634826660156 602.6509399414062 392.4737548828125 599.9969482421875 394.2532653808594 L 599.9920043945312 394.256591796875 C 599.1224975585938 394.8321228027344 598.1621704101562 395.1817321777344 597.1329345703125 395.2980346679688 L 597.1110229492188 405.7230529785156 C 598.6272583007812 405.91552734375 599.5128784179688 406.2932739257812 600.2998046875 406.6289367675781 C 601.2196655273438 407.0213012695312 602.0140991210938 407.3601379394531 603.8781127929688 407.3777770996094 C 605.0546264648438 407.3896789550781 606.2594604492188 407.3896789550781 607.4246826171875 407.3896789550781 C 608.0863037109375 407.3896789550781 608.7703857421875 407.3896789550781 609.4431762695312 407.4017028808594 L 609.4745483398438 407.4019165039062 M 609.4745483398438 408.4019165039062 C 609.459716796875 408.4019165039062 609.4447631835938 408.4017944335938 609.4298095703125 408.401611328125 C 608.761474609375 408.3896789550781 608.0930786132812 408.3896789550781 607.4246826171875 408.3896789550781 C 606.231201171875 408.3896789550781 605.049560546875 408.3896789550781 603.8679809570312 408.3777160644531 C 600.0845336914062 408.3419189453125 600.1203002929688 407.0409240722656 596.706787109375 406.6828918457031 L 596.611328125 406.6828918457031 C 596.3367919921875 406.6828918457031 596.1100463867188 406.4561157226562 596.1100463867188 406.1815795898438 L 596.1339111328125 394.8310852050781 C 596.1339111328125 394.5565490722656 596.3607177734375 394.3297729492188 596.6351928710938 394.3297729492188 L 596.730712890625 394.3297729492188 C 597.6856079101562 394.2700805664062 598.5925903320312 393.983642578125 599.4400634765625 393.4226989746094 C 601.5048828125 392.0382080078125 602.7222290039062 389.4840393066406 603.3428955078125 387.0969848632812 C 603.4861450195312 386.5360107421875 603.6412963867188 385.9750671386719 603.8561401367188 385.4379577636719 C 604.6436767578125 383.5402221679688 607.0427856445312 384.36376953125 607.18603515625 386.9776306152344 C 607.4486083984375 391.548828125 605.78955078125 393.35107421875 607.2337646484375 393.3868713378906 C 607.4605712890625 393.3868713378906 608.1527709960938 393.3988342285156 608.7733764648438 393.3988342285156 L 608.7733764648438 393.3868713378906 C 609.1314697265625 393.3868713378906 609.4776000976562 393.3868713378906 609.82373046875 393.3868713378906 C 610.090087890625 393.3933410644531 610.356201171875 393.3821716308594 610.62060546875 393.3822021484375 C 610.842041015625 393.3822021484375 611.0621948242188 393.3900451660156 611.27978515625 393.4226989746094 C 612.2824096679688 393.56591796875 612.8433227539062 394.1865539550781 613.1417236328125 394.9981689453125 C 613.3566284179688 395.5830078125 613.3566284179688 396.1678466796875 613.1775512695312 396.7645874023438 C 613.1536254882812 396.8243103027344 613.1895141601562 396.9436645507812 613.2371826171875 396.967529296875 C 613.833984375 397.3136596679688 615.0513305664062 400.2378234863281 613.1536254882812 401.6939392089844 C 613.3327026367188 402.2190856933594 613.3566284179688 402.7800598144531 613.1895141601562 403.3410034179688 C 612.9984741210938 403.9974670410156 612.6046752929688 404.5465087890625 611.9004516601562 404.8806762695312 C 611.7691040039062 404.9403686523438 611.7691040039062 405.0119934082031 611.804931640625 405.1194152832031 C 612.019775390625 405.9190979003906 611.9362182617188 406.6829223632812 611.4468994140625 407.3990478515625 C 611.0009155273438 408.0562744140625 610.3472290039062 408.4019165039062 609.4745483398438 408.4019165039062 Z" stroke="none" fill="#13d0b4"/>
    </g>
    <g id="Path_600" data-name="Path 600" transform="translate(-24.7 1.544)" fill="#13d0b4" fill-rule="evenodd">
      <path d="M 595.259521484375 405.0088500976562 L 589.3519897460938 404.9968872070312 C 589.1133422851562 404.9968872070312 588.9199829101562 404.8035583496094 588.9199829101562 404.5659484863281 L 588.94384765625 393.31201171875 C 588.94384765625 393.0733032226562 589.13720703125 392.8799743652344 589.3748779296875 392.8799743652344 L 595.2817993164062 392.8919372558594 C 595.5205078125 392.8919372558594 595.7138671875 393.0852661132812 595.7138671875 393.3228759765625 L 595.68994140625 404.5768127441406 C 595.68994140625 404.8153381347656 595.4969482421875 405.008544921875 595.259521484375 405.0088500976562 Z" stroke="none"/>
      <path d="M 595.1900634765625 404.5086975097656 L 595.2137451171875 393.3918151855469 L 589.4437255859375 393.380126953125 L 589.4201049804688 404.4970092773438 L 595.1900634765625 404.5086975097656 M 595.2589721679688 405.5088500976562 L 589.3509521484375 405.4968872070312 C 588.8377075195312 405.4968872070312 588.4199829101562 405.0791625976562 588.4199829101562 404.5659484863281 L 588.44384765625 393.3109436035156 C 588.44384765625 392.7977294921875 588.8616333007812 392.3799743652344 589.3748779296875 392.3799743652344 L 595.2828369140625 392.3919372558594 C 595.796142578125 392.3919372558594 596.2138671875 392.8096618652344 596.2138671875 393.3228759765625 L 596.18994140625 404.577880859375 C 596.18994140625 405.0910949707031 595.7721557617188 405.5088500976562 595.2589721679688 405.5088500976562 Z" stroke="none" fill="#13d0b4"/>
    </g>
  </g>
</svg>
