<svg xmlns="http://www.w3.org/2000/svg" width="27.243" height="24" viewBox="0 0 27.243 24">
  <g id="Group_4024" data-name="Group 4024" transform="translate(-563.72 -384.402)">
    <g id="Path_599" data-name="Path 599" transform="translate(-23.212)" fill="none" fill-rule="evenodd">
      <path d="M613.237,396.968a.2.2,0,0,1-.06-.2,2.714,2.714,0,0,0-.036-1.766,2.234,2.234,0,0,0-1.862-1.575,11.809,11.809,0,0,0-1.456-.036h-1.05v.012c-.621,0-1.313-.012-1.54-.012-1.444-.036.215-1.838-.048-6.409-.143-2.614-2.542-3.437-3.33-1.54a13.338,13.338,0,0,0-.513,1.659c-.621,2.387-1.838,4.941-3.9,6.326a5.436,5.436,0,0,1-2.709.907h-.1a.5.5,0,0,0-.5.5l-.024,11.35a.5.5,0,0,0,.5.5h.1c3.414.358,3.378,1.659,7.161,1.695,1.182.012,2.363.012,3.557.012.668,0,1.337,0,2.005.012a2.248,2.248,0,0,0,2.017-1,2.638,2.638,0,0,0,.358-2.28c-.036-.107-.036-.179.1-.239a2.349,2.349,0,0,0,1.289-1.54,2.673,2.673,0,0,0-.036-1.647C615.051,400.238,613.834,397.314,613.237,396.968Z" stroke="none"/>
      <path d="M 609.4745483398438 407.4019165039062 C 610.00146484375 407.4019165039062 610.3545532226562 407.2278442382812 610.6212158203125 406.8348999023438 C 610.9202880859375 406.3972473144531 610.9893188476562 405.9532165527344 610.8441162109375 405.3975219726562 C 610.6638793945312 404.8027648925781 610.914306640625 404.2361450195312 611.4759521484375 403.9752197265625 C 611.8674926757812 403.7882080078125 612.0999755859375 403.5062561035156 612.2293701171875 403.0615844726562 L 612.2311401367188 403.0555114746094 C 612.3333129882812 402.7125244140625 612.3252563476562 402.3630065917969 612.2071533203125 402.0166931152344 L 611.9755249023438 401.3374328613281 L 612.5448608398438 400.9005737304688 C 612.9268188476562 400.6075134277344 613.130859375 400.2054748535156 613.1685791015625 399.6715087890625 C 613.2297973632812 398.8062438964844 612.8260498046875 397.9776611328125 612.6671142578125 397.7891540527344 C 612.2612915039062 397.5084228515625 612.0687866210938 396.9437866210938 612.2242431640625 396.4619750976562 C 612.34228515625 396.059326171875 612.3355102539062 395.7033996582031 612.2031860351562 395.34326171875 C 611.9913940429688 394.767333984375 611.6729736328125 394.489013671875 611.1383666992188 394.4126586914062 L 611.1314086914062 394.41162109375 C 610.9957885742188 394.3912658691406 610.8382568359375 394.3822021484375 610.62060546875 394.3822021484375 C 610.5238647460938 394.3822021484375 610.4268188476562 394.3838500976562 610.3296508789062 394.3854064941406 C 610.1573486328125 394.3882141113281 609.9846801757812 394.3907165527344 609.81201171875 394.3868713378906 L 609.7733764648438 394.3868713378906 L 609.7733764648438 394.3988342285156 L 608.7733764648438 394.3988342285156 C 608.3809814453125 394.3988342285156 607.95751953125 394.3940734863281 607.6483764648438 394.390625 C 607.4644775390625 394.3885498046875 607.3169555664062 394.3868713378906 607.2337646484375 394.3868713378906 L 607.208984375 394.3865661621094 C 606.662841796875 394.3730163574219 606.2428588867188 394.1875305175781 605.960693359375 393.835205078125 C 605.4795532226562 393.234375 605.6222534179688 392.513916015625 605.81982421875 391.5167236328125 C 606.0128784179688 390.5422973632812 606.3045654296875 389.0697326660156 606.1875610351562 387.0323181152344 C 606.1292724609375 385.968505859375 605.58056640625 385.4018859863281 605.2068481445312 385.4018859863281 C 604.9996337890625 385.4018859863281 604.8616943359375 385.6257934570312 604.7819213867188 385.8160400390625 C 604.5868530273438 386.3053283691406 604.440673828125 386.8396606445312 604.3107299804688 387.3486328125 C 603.8388061523438 389.1634826660156 602.6509399414062 392.4737548828125 599.9969482421875 394.2532653808594 L 599.9920043945312 394.256591796875 C 599.1224975585938 394.8321228027344 598.1621704101562 395.1817321777344 597.1329345703125 395.2980346679688 L 597.1110229492188 405.7230529785156 C 598.6272583007812 405.91552734375 599.5128784179688 406.2932739257812 600.2998046875 406.6289367675781 C 601.2196655273438 407.0213012695312 602.0140991210938 407.3601379394531 603.8781127929688 407.3777770996094 C 605.0546264648438 407.3896789550781 606.2594604492188 407.3896789550781 607.4246826171875 407.3896789550781 C 608.0863037109375 407.3896789550781 608.7703857421875 407.3896789550781 609.4431762695312 407.4017028808594 L 609.4745483398438 407.4019165039062 M 609.4745483398438 408.4019165039062 C 609.459716796875 408.4019165039062 609.4447631835938 408.4017944335938 609.4298095703125 408.401611328125 C 608.761474609375 408.3896789550781 608.0930786132812 408.3896789550781 607.4246826171875 408.3896789550781 C 606.231201171875 408.3896789550781 605.049560546875 408.3896789550781 603.8679809570312 408.3777160644531 C 600.0845336914062 408.3419189453125 600.1203002929688 407.0409240722656 596.706787109375 406.6828918457031 L 596.611328125 406.6828918457031 C 596.3367919921875 406.6828918457031 596.1100463867188 406.4561157226562 596.1100463867188 406.1815795898438 L 596.1339111328125 394.8310852050781 C 596.1339111328125 394.5565490722656 596.3607177734375 394.3297729492188 596.6351928710938 394.3297729492188 L 596.730712890625 394.3297729492188 C 597.6856079101562 394.2700805664062 598.5925903320312 393.983642578125 599.4400634765625 393.4226989746094 C 601.5048828125 392.0382080078125 602.7222290039062 389.4840393066406 603.3428955078125 387.0969848632812 C 603.4861450195312 386.5360107421875 603.6412963867188 385.9750671386719 603.8561401367188 385.4379577636719 C 604.6436767578125 383.5402221679688 607.0427856445312 384.36376953125 607.18603515625 386.9776306152344 C 607.4486083984375 391.548828125 605.78955078125 393.35107421875 607.2337646484375 393.3868713378906 C 607.4605712890625 393.3868713378906 608.1527709960938 393.3988342285156 608.7733764648438 393.3988342285156 L 608.7733764648438 393.3868713378906 C 609.1314697265625 393.3868713378906 609.4776000976562 393.3868713378906 609.82373046875 393.3868713378906 C 610.090087890625 393.3933410644531 610.356201171875 393.3821716308594 610.62060546875 393.3822021484375 C 610.842041015625 393.3822021484375 611.0621948242188 393.3900451660156 611.27978515625 393.4226989746094 C 612.2824096679688 393.56591796875 612.8433227539062 394.1865539550781 613.1417236328125 394.9981689453125 C 613.3566284179688 395.5830078125 613.3566284179688 396.1678466796875 613.1775512695312 396.7645874023438 C 613.1536254882812 396.8243103027344 613.1895141601562 396.9436645507812 613.2371826171875 396.967529296875 C 613.833984375 397.3136596679688 615.0513305664062 400.2378234863281 613.1536254882812 401.6939392089844 C 613.3327026367188 402.2190856933594 613.3566284179688 402.7800598144531 613.1895141601562 403.3410034179688 C 612.9984741210938 403.9974670410156 612.6046752929688 404.5465087890625 611.9004516601562 404.8806762695312 C 611.7691040039062 404.9403686523438 611.7691040039062 405.0119934082031 611.804931640625 405.1194152832031 C 612.019775390625 405.9190979003906 611.9362182617188 406.6829223632812 611.4468994140625 407.3990478515625 C 611.0009155273438 408.0562744140625 610.3472290039062 408.4019165039062 609.4745483398438 408.4019165039062 Z" stroke="none" fill="#13d0b4"/>
    </g>
    <g id="Path_600" data-name="Path 600" transform="translate(-24.7 1.544)" fill="none" fill-rule="evenodd">
      <path d="M588.42,404.566a.932.932,0,0,0,.931.931l5.908.012a.932.932,0,0,0,.931-.931l.024-11.255a.932.932,0,0,0-.931-.931l-5.908-.012a.932.932,0,0,0-.931.931Z" stroke="none"/>
      <path d="M 595.1900634765625 404.5086975097656 L 595.2137451171875 393.3918151855469 L 589.4437255859375 393.380126953125 L 589.4201049804688 404.4970092773438 L 595.1900634765625 404.5086975097656 M 595.2589721679688 405.5088500976562 L 589.3509521484375 405.4968872070312 C 588.8377075195312 405.4968872070312 588.4199829101562 405.0791625976562 588.4199829101562 404.5659484863281 L 588.44384765625 393.3109436035156 C 588.44384765625 392.7977294921875 588.8616333007812 392.3799743652344 589.3748779296875 392.3799743652344 L 595.2828369140625 392.3919372558594 C 595.796142578125 392.3919372558594 596.2138671875 392.8096618652344 596.2138671875 393.3228759765625 L 596.18994140625 404.577880859375 C 596.18994140625 405.0910949707031 595.7721557617188 405.5088500976562 595.2589721679688 405.5088500976562 Z" stroke="none" fill="#13d0b4"/>
    </g>
  </g>
</svg>
