<svg xmlns="http://www.w3.org/2000/svg" width="183.858" height="40" viewBox="161.035 16 91.929 20"><g data-name="Group 4003"><path d="m194.687 16.385-3.791 19.23h-2.838a1.804 1.804 0 0 1-1.77-2.15l1.558-7.987-6.401 8.242h-1.195a1.804 1.804 0 0 1-1.661-1.1l-3.023-7.142-2.033 10.137h-3.256l3.846-19.23h2.679l4.506 11.126 7.832-9.976a3.008 3.008 0 0 1 2.367-1.15h3.18Z" fill="#fff" fill-rule="evenodd" data-name="Path 651"/><path d="m237.126 16.385-12.06 19.23h-3.917a1.804 1.804 0 0 1-1.76-1.404l-3.214-14.151a3.008 3.008 0 0 1 2.934-3.675h1.808l2.747 12.5 6.973-11.093a3.008 3.008 0 0 1 2.547-1.407h3.942Z" fill="#fff" fill-rule="evenodd" data-name="Path 652"/><path d="m242.415 20.588-.632 3.241h8.544l-.797 4.067h-8.571l-.687 3.516h10.083l-.88 4.203h-13.212a1.804 1.804 0 0 1-1.768-2.157l2.93-14.655a3.009 3.009 0 0 1 2.95-2.418h12.59l-.852 4.203h-9.698Z" fill="#fff" fill-rule="evenodd" data-name="Path 653"/><path d="M205.9 16c-7.06 0-12.005 4.863-12.005 11.538 0 4.973 3.653 8.462 9.56 8.462 7.06 0 12.005-4.863 12.005-11.538 0-4.973-3.653-8.462-9.56-8.462Zm3.893 10.576-8.16 5.07c-.536.333-1.117-.002-.999-.577l2.082-10.138c.118-.576.836-.91 1.236-.577l6.078 5.07c.338.282.218.87-.237 1.152Z" fill="#13d0b4" fill-rule="evenodd" data-name="Path 666"/><g data-name="Group 2013"><path d="M165.142 24.275a.966.966 0 0 0-.96-.94h-.48a.915.915 0 0 0-.918.94c.011.499.44.937.958.937h.48c.519 0 .93-.438.92-.937Z" fill="#fff" fill-rule="evenodd" data-name="Path 667"/><path d="M162.056 30.46h-.177a.842.842 0 0 0-.843.862.89.89 0 0 0 .265.61c.16.156.378.252.615.252h.177a.842.842 0 0 0 .844-.862.882.882 0 0 0-.88-.862Z" fill="#fff" fill-rule="evenodd" data-name="Path 668"/><path d="M175.612 16.385h-7.685c-.499 0-.89.419-.879.918.011.502.42.899.919.899h1.717a.9.9 0 0 1 .877.857c.01.48-.379.882-.839.882h-4.235a.84.84 0 0 0-.839.858c.01.482.416.857.876.857h3.816c.039 0 .08 0 .1.022.41.039.732.385.754.795.002.007.002.017.003.024a.806.806 0 0 1-.721.821c-.02.02-.06.02-.1.02h-2.258a.913.913 0 0 0-.916.937c.01.5.439.918.957.918l2.356-.022h1.088c.088 0 .17.015.25.04.352.103.601.426.61.798a.813.813 0 0 1-.823.844h-1.284l-1.901.017c-.538 0-.948.44-.936.98.012.541.44.98.978.98h1.12a.828.828 0 0 1 .837.817.803.803 0 0 1-.788.82h-3.709c-.48 0-.852.38-.841.86.01.475.399.855.879.855h4.39a.868.868 0 0 1 .856.84.821.821 0 0 1-.82.84h-.536a.866.866 0 0 0-.82.877c.011.479.398.879.897.898h2.855c1.182-6.003 2.657-13.494 3.795-19.252Z" fill="#fff" fill-rule="evenodd" data-name="Path 669"/></g></g></svg>