<svg id="Icon_-_Question" data-name="Icon - Question" xmlns="http://www.w3.org/2000/svg" width="18" height="18" viewBox="0 0 18 18">
  <g id="Group_1393" data-name="Group 1393">
    <g id="Group_1392" data-name="Group 1392">
      <circle id="Ellipse_18" data-name="Ellipse 18" cx="0.925" cy="0.925" r="0.925" transform="translate(8.075 12.357)"/>
      <path id="Path_228" data-name="Path 228" d="M9,0a9,9,0,1,0,9,9A9,9,0,0,0,9,0ZM9,16.594A7.594,7.594,0,1,1,16.594,9,7.59,7.59,0,0,1,9,16.594Z"/>
      <path id="Path_229" data-name="Path 229" d="M178.96,128.5a2.963,2.963,0,0,0-2.96,2.96.74.74,0,1,0,1.48,0,1.48,1.48,0,1,1,1.48,1.48.74.74,0,0,0-.74.74v1.85a.74.74,0,1,0,1.48,0v-1.2a2.96,2.96,0,0,0-.74-5.826Z" transform="translate(-169.96 -124.147)"/>
    </g>
  </g>
</svg>
