<svg xmlns="http://www.w3.org/2000/svg" width="48" height="48" viewBox="366 14 24 24"><path d="m389.374 34.349-4.505-4.505a10.15 10.15 0 0 0 1.658-5.581c0-5.67-4.594-10.263-10.263-10.263C370.594 14 366 18.594 366 24.263c0 5.67 4.594 10.263 10.264 10.263a10.15 10.15 0 0 0 5.58-1.658l4.505 4.505a2.139 2.139 0 1 0 3.025-3.024Zm-20.956-10.086a7.845 7.845 0 0 1 7.846-7.846 7.845 7.845 0 0 1 7.846 7.846 7.788 7.788 0 0 1-1.696 4.86l-1.304 1.303a7.864 7.864 0 0 1-4.86 1.696c-4.314-.013-7.832-3.531-7.832-7.86Z" fill="#fff" fill-rule="evenodd" data-name="Path 670"/></svg>