<svg xmlns="http://www.w3.org/2000/svg" width="17.231" height="16" viewBox="318 213 17.231 16"><path d="M334.577 218.538h-5.658l-1.72-5.13a.607.607 0 0 0-.584-.408c-.265 0-.5.158-.584.408l-1.72 5.13h-5.696a.617.617 0 0 0-.615.616c0 .034.004.073.011.104.008.134.07.284.258.434l4.65 3.277-1.785 5.189c-.088.25 0 .53.212.692.111.08.215.15.346.15a.754.754 0 0 0 .385-.138l4.538-3.235 4.539 3.235a.72.72 0 0 0 .384.138c.131 0 .235-.065.343-.15a.61.61 0 0 0 .211-.692l-1.785-5.189 4.612-3.307.112-.097c.1-.107.2-.253.2-.411 0-.339-.316-.616-.654-.616Z" fill="#ffb564" fill-rule="evenodd" data-name="Icon ionic-ios-star"/></svg>