<svg xmlns="http://www.w3.org/2000/svg" width="16" height="16" viewBox="-0.001 0.001 16 16"><g data-name="Group 4022" clip-path="url(&quot;#a&quot;)"><path d="M15.924 8.985c-.098-.398-.198-.497-.297-.596l-.395-.398c-.494-.496-.593-1.291-.296-1.887l.296-.497c.298-.496.1-1.092-.296-1.291-.098-.1-.198-.1-.395-.1l-.594-.099a1.39 1.39 0 0 1-1.186-1.39V2.13c0-.497-.394-.994-.988-.994-.099 0-.296 0-.394.1l-.494.198c-.693.298-1.385 0-1.78-.496L8.808.442C8.512.045 7.92-.154 7.426.144l-.297.298-.297.497c-.394.596-1.185.794-1.779.496l-.494-.198c-.494-.199-1.086 0-1.285.496 0 .1-.098.199-.098.398v.596a1.39 1.39 0 0 1-1.186 1.39l-.594.1c-.494.099-.888.596-.79 1.092 0 .1.1.199.1.398l.296.496c.394.596.198 1.391-.296 1.888l-.397.397a1.067 1.067 0 0 0-.098 1.39c.098.1.197.2.297.2l.494.297c.592.298.988.994.79 1.69l-.198.595c-.098.497.198 1.092.692 1.192h.396l.592-.1c.693-.098 1.385.398 1.581.993l.198.597c.198.497.692.795 1.186.596.099 0 .199-.1.296-.2l.397-.396a1.626 1.626 0 0 1 1.876 0l.396.397c.395.299.988.299 1.383-.099.1-.1.1-.198.198-.298l.198-.496c.197-.696.89-1.094 1.582-.994l.592.1c.494.099.988-.298 1.087-.795v-.399l-.099-.595c-.198-.695.199-1.391.79-1.688l.495-.2c.494-.198.692-.794.494-1.29m-3.286-1.86a.692.692 0 0 1-.23.318c-.593.52-1.182 1.047-1.778 1.566-.18.157-.236.335-.18.567.186.757.365 1.515.545 2.272.05.208-.006.385-.16.493-.168.118-.338.114-.51.01-.67-.397-1.345-.788-2.012-1.19-.215-.13-.409-.134-.624-.004-.668.403-1.34.796-2.012 1.191-.217.128-.422.103-.582-.074a.439.439 0 0 1-.094-.424c.186-.765.37-1.532.557-2.296a.49.49 0 0 0-.167-.529c-.619-.543-1.233-1.09-1.851-1.634a.463.463 0 0 1-.175-.316c-.023-.228.136-.45.364-.477.364-.043.732-.075 1.099-.11l1.424-.134c.228-.02.371-.135.457-.35.281-.707.57-1.409.857-2.113.105-.255.299-.365.545-.303.157.04.245.152.305.297.166.412.336.823.506 1.236.12.294.245.586.36.883.084.213.228.33.458.351.539.047 1.077.1 1.614.151.289.028.578.052.866.085.23.027.347.138.405.365.002.008.008.015.013.024v.145Z" fill="#ff7bb8" fill-rule="evenodd" data-name="Path 721"/></g><defs><clipPath id="a"><path d="M0 0h16v16H0V0z" data-name="Rectangle 15307"/></clipPath></defs></svg>