<svg xmlns="http://www.w3.org/2000/svg" xmlns:xlink="http://www.w3.org/1999/xlink" width="40" height="40" viewBox="0 0 40 40">
  <defs>
    <clipPath id="clip-path">
      <rect width="40" height="40" fill="none"/>
    </clipPath>
  </defs>
  <g id="Group_1343" data-name="Group 1343" transform="translate(-832 -828)">
    <circle id="Ellipse_14" data-name="Ellipse 14" cx="20" cy="20" r="20" transform="translate(832 828)" fill="#fff"/>
    <g id="youtube-2" transform="translate(832 828)" clip-path="url(#clip-path)">
      <g id="youtube-2-2" data-name="youtube-2">
        <path id="Path_223" data-name="Path 223" d="M224.113,215.533l6.506-3.747-6.506-3.747Zm0,0" transform="translate(-206.604 -191.786)" fill="red"/>
        <path id="Path_224" data-name="Path 224" d="M20,0A20,20,0,1,0,40,20,20,20,0,0,0,20,0ZM32.5,20.02a33.009,33.009,0,0,1-.515,6.012,3.132,3.132,0,0,1-2.2,2.2C27.823,28.75,20,28.75,20,28.75s-7.8,0-9.779-.535a3.132,3.132,0,0,1-2.2-2.2A32.864,32.864,0,0,1,7.5,20a32.988,32.988,0,0,1,.515-6.012,3.2,3.2,0,0,1,2.2-2.224C12.177,11.25,20,11.25,20,11.25s7.823,0,9.779.535a3.132,3.132,0,0,1,2.2,2.2A31.325,31.325,0,0,1,32.5,20.02Zm0,0" fill="red"/>
      </g>
    </g>
  </g>
</svg>
